<svg width="78" height="78" viewBox="0 0 78 78" fill="none" xmlns="http://www.w3.org/2000/svg">
<g filter="url(#filter0_d)">
<rect x="17" y="15" width="48" height="48" rx="10" fill="white"/>
</g>
<path d="M54.3353 51.2279C56.7481 48.701 56.5748 46.4022 54.3353 44.1673C53.902 43.7249 53.414 43.3417 52.8849 43.0225C51.0239 41.8639 49.0718 42.1194 47.1196 44.0715C46.8642 44.3269 46.627 44.596 46.4081 44.8834C45.0398 46.1468 41.7786 43.2733 38.8047 40.304L38.7363 40.2356L38.6679 40.1672C35.6941 37.1979 32.8251 33.9367 34.0885 32.5638C34.3759 32.3449 34.645 32.1077 34.9004 31.8523C36.8526 29.9001 37.1126 27.948 35.9495 26.0871C35.6348 25.5534 35.2471 25.0654 34.8046 24.6366C32.5697 22.4017 30.2709 22.2238 27.744 24.6366C27.2332 25.1247 26.7041 25.9 26.6859 25.9137C24.5193 29.0518 26.7041 36.231 34.6541 44.181L34.7225 44.2494L34.791 44.3178C42.741 52.2724 49.9202 54.4526 53.0582 52.2861C53.0764 52.2724 53.8518 51.7387 54.3353 51.2279Z" fill="#0199EE"/>
<path d="M50.153 53.9881C48.7436 53.9881 47.1289 53.6414 45.3912 52.9481C41.8381 51.5296 37.9474 48.7701 34.1435 44.9662L34.1343 44.9571L34.0112 44.8385L34.0021 44.8293C30.1981 41.0254 27.4386 37.1393 26.0201 33.5816C24.6655 30.1791 24.6335 27.2736 25.9289 25.3944L25.9563 25.3534L25.9745 25.326C26.1433 25.1117 26.6176 24.4503 27.1148 23.9759C28.5287 22.6259 29.97 21.9554 31.4022 21.9827C32.7797 22.0101 34.1435 22.6851 35.4525 23.9942C35.9451 24.4777 36.3784 25.025 36.7296 25.6225C37.432 26.7537 37.6874 27.9213 37.4868 29.0935C37.2861 30.2657 36.6338 31.4106 35.5392 32.5052C35.2837 32.7606 35.0146 33.0024 34.7318 33.2259C34.6269 33.4174 34.6908 34.0195 35.5392 35.2601C36.5198 36.6923 38.1618 38.3845 39.3112 39.5339L39.448 39.6707C40.5974 40.8201 42.2896 42.4576 43.7218 43.4428C44.9579 44.2911 45.5645 44.355 45.7561 44.2501C45.9795 43.9673 46.2167 43.6982 46.4767 43.4428C47.5714 42.3481 48.7162 41.6959 49.8884 41.4952C51.0606 41.2945 52.2283 41.5499 53.3594 42.2523C53.9569 42.6081 54.4997 43.0368 54.9877 43.534C56.2968 44.843 56.9718 46.2068 56.9992 47.5843C57.0266 49.0119 56.3561 50.4578 55.0014 51.8717C54.5271 52.3689 53.8657 52.8432 53.6468 53.0029L53.6194 53.0211C53.6057 53.0302 53.592 53.0393 53.5784 53.053C52.6616 53.6733 51.4985 53.9881 50.153 53.9881ZM35.4388 43.6799C39.0649 47.306 42.7412 49.9241 46.0662 51.2514C48.8302 52.3552 51.1792 52.4601 52.5247 51.5479L52.5795 51.5114C53.0721 51.1556 53.4415 50.85 53.6787 50.6037C55.6673 48.5238 55.6719 46.7906 53.6924 44.8157C53.3138 44.428 52.8896 44.095 52.429 43.8168L52.4016 43.8031C51.6444 43.3333 50.9192 43.1645 50.1894 43.2877C49.4004 43.42 48.5839 43.9034 47.7629 44.7244C47.5303 44.9525 47.316 45.1942 47.1198 45.4542C47.0879 45.4907 47.056 45.5272 47.024 45.5591C46.6363 45.9194 45.9385 46.2889 44.8347 46.0061C44.2098 45.8465 43.5074 45.4998 42.691 44.9388C41.1356 43.8715 39.3614 42.152 38.1618 40.9524L38.025 40.8156C36.8254 39.616 35.1059 37.8417 34.0386 36.2818C33.4775 35.4654 33.1263 34.763 32.9713 34.1381C32.693 33.0343 33.0625 32.3365 33.4182 31.9488C33.4502 31.9123 33.4867 31.8803 33.5232 31.853C33.7831 31.6569 34.0249 31.4425 34.2529 31.2099C35.0739 30.3889 35.5574 29.5724 35.6897 28.7834C35.8128 28.049 35.6441 27.3284 35.1743 26.5712L35.1606 26.5438C34.8824 26.0832 34.5494 25.6544 34.1617 25.2804C32.1867 23.3055 30.4535 23.31 28.3737 25.2987C28.1274 25.5358 27.8172 25.9053 27.466 26.3979L27.4249 26.4526C26.5127 27.7936 26.6222 30.1471 27.7214 32.9112C29.0487 36.2362 31.6668 39.9125 35.2929 43.5385L35.3567 43.6024L35.375 43.6206L35.4388 43.6799Z" fill="#0199EE"/>
<defs>
<filter id="filter0_d" x="0" y="0" width="78" height="78" filterUnits="userSpaceOnUse" color-interpolation-filters="sRGB">
<feFlood flood-opacity="0" result="BackgroundImageFix"/>
<feColorMatrix in="SourceAlpha" type="matrix" values="0 0 0 0 0 0 0 0 0 0 0 0 0 0 0 0 0 0 127 0"/>
<feOffset dx="-2"/>
<feGaussianBlur stdDeviation="7.5"/>
<feColorMatrix type="matrix" values="0 0 0 0 0 0 0 0 0 0 0 0 0 0 0 0 0 0 0.2 0"/>
<feBlend mode="normal" in2="BackgroundImageFix" result="effect1_dropShadow"/>
<feBlend mode="normal" in="SourceGraphic" in2="effect1_dropShadow" result="shape"/>
</filter>
</defs>
</svg>
