<svg width="35" height="34" viewBox="0 0 35 34" fill="none" xmlns="http://www.w3.org/2000/svg"><rect width="34.618" height="33.403" rx="3.644" fill="#245A9B"/><path fill-rule="evenodd" clip-rule="evenodd" d="M14.789 16.69v9.607c0 .14.109.25.248.25h3.565c.14 0 .25-.11.25-.25v-9.765h2.587a.25.25 0 0 0 .249-.231l.249-2.94a.252.252 0 0 0-.25-.273h-2.835v-2.09c0-.491.394-.886.886-.886h1.992c.14 0 .25-.11.25-.249V6.93c0-.14-.11-.25-.25-.25h-3.37a3.58 3.58 0 0 0-3.578 3.578v2.836h-1.78a.247.247 0 0 0-.248.25v2.938c0 .14.11.25.249.25h1.786v.157z" fill="#fff"/></svg>