<svg width="35" height="34" viewBox="0 0 35 34" fill="none" xmlns="http://www.w3.org/2000/svg"><rect x=".382" width="34.618" height="33.403" rx="3.644" fill="#0CF"/><path d="M27.515 10.411c-.614.28-1.288.444-1.95.56.316-.056.777-.62.966-.851.285-.352.516-.753.65-1.184.018-.037.03-.08-.007-.104-.042-.018-.066-.006-.103.006a9.946 9.946 0 0 1-2.32.887.15.15 0 0 1-.158-.042 2.175 2.175 0 0 0-.2-.207 3.97 3.97 0 0 0-2.848-.966c-.571.037-1.13.2-1.634.462a4.26 4.26 0 0 0-1.318 1.075 4.16 4.16 0 0 0-.79 1.579c-.133.553-.121 1.105-.042 1.664.012.091.006.103-.08.091-3.182-.473-5.823-1.615-7.967-4.057-.091-.103-.146-.103-.219.006-.935 1.403-.48 3.662.686 4.774.158.146.316.298.492.431-.06.012-.844-.073-1.536-.431-.091-.06-.14-.024-.146.079-.006.152.006.291.024.455.182 1.428 1.166 2.746 2.52 3.256.159.067.34.127.51.158-.309.066-.625.115-1.505.048-.11-.018-.152.037-.11.14.662 1.81 2.096 2.344 3.17 2.654.146.024.286.024.432.06-.006.013-.018.013-.024.025-.359.54-1.592.947-2.163 1.148-1.044.364-2.18.528-3.285.419-.176-.024-.213-.024-.261 0-.049.03-.006.073.048.115.225.146.45.28.686.407.699.37 1.434.668 2.199.88 3.948 1.088 8.393.292 11.357-2.653 2.326-2.314 3.14-5.503 3.14-8.691 0-.128.146-.194.237-.261.607-.456 1.087-1.002 1.536-1.61.104-.133.098-.255.098-.31v-.018c-.013-.042-.007-.03-.085.006z" fill="#fff"/></svg>